<svg width="524"
     height="143"
     viewBox="0 0 524 143"
     fill="none"
     xmlns="http://www.w3.org/2000/svg">
  <path d="M77.2 23.4L29.8 116.8H77.4V140H0.8V117.2L48 24H0.8V-9.53674e-06H77.2V23.4ZM91.9281 140V-9.53674e-06H163.728V24H119.328V57.4H158.928V80.6H119.328V116.8H164.528V140H91.9281ZM242.414 140L205.014 62.6L204.014 63L205.214 86.6V140H180.014V-9.53674e-06H200.214L237.014 80.4L238.014 80L235.814 55.4V-9.53674e-06H261.014V140H242.414Z"
        fill="#08BB95" />
  <path d="M333.393 30.9091V45.1136H276.859V30.9091H333.393ZM293.337 4.77273H310.098V108.75C310.098 113.485 310.785 117.036 312.158 119.403C313.578 121.723 315.377 123.286 317.555 124.091C319.781 124.848 322.125 125.227 324.587 125.227C326.433 125.227 327.948 125.133 329.132 124.943C330.316 124.706 331.263 124.517 331.973 124.375L335.382 139.432C334.246 139.858 332.66 140.284 330.624 140.71C328.588 141.184 326.007 141.42 322.882 141.42C318.147 141.42 313.507 140.402 308.962 138.366C304.464 136.33 300.723 133.229 297.74 129.062C294.804 124.896 293.337 119.64 293.337 113.295V4.77273ZM358.607 140V30.9091H374.8V47.3864H375.936C377.925 41.9886 381.523 37.6089 386.732 34.2472C391.94 30.8854 397.811 29.2045 404.345 29.2045C405.576 29.2045 407.115 29.2282 408.962 29.2756C410.808 29.3229 412.205 29.3939 413.152 29.4886V46.5341C412.584 46.392 411.282 46.179 409.246 45.8949C407.257 45.5634 405.15 45.3977 402.925 45.3977C397.622 45.3977 392.887 46.5104 388.72 48.7358C384.601 50.9138 381.334 53.9441 378.919 57.8267C376.552 61.6619 375.368 66.0417 375.368 70.9659V140H358.607ZM474.018 142.273C464.17 142.273 455.529 139.929 448.095 135.241C440.709 130.554 434.932 123.996 430.766 115.568C426.646 107.14 424.587 97.2917 424.587 86.0227C424.587 74.6591 426.646 64.7396 430.766 56.2642C434.932 47.7888 440.709 41.2074 448.095 36.5199C455.529 31.8324 464.17 29.4886 474.018 29.4886C483.867 29.4886 492.484 31.8324 499.871 36.5199C507.304 41.2074 513.081 47.7888 517.2 56.2642C521.367 64.7396 523.45 74.6591 523.45 86.0227C523.45 97.2917 521.367 107.14 517.2 115.568C513.081 123.996 507.304 130.554 499.871 135.241C492.484 139.929 483.867 142.273 474.018 142.273ZM474.018 127.216C481.5 127.216 487.655 125.298 492.484 121.463C497.314 117.628 500.889 112.585 503.209 106.335C505.529 100.085 506.689 93.3144 506.689 86.0227C506.689 78.7311 505.529 71.9366 503.209 65.6392C500.889 59.3419 497.314 54.2519 492.484 50.3693C487.655 46.4867 481.5 44.5455 474.018 44.5455C466.537 44.5455 460.382 46.4867 455.553 50.3693C450.723 54.2519 447.148 59.3419 444.828 65.6392C442.508 71.9366 441.348 78.7311 441.348 86.0227C441.348 93.3144 442.508 100.085 444.828 106.335C447.148 112.585 450.723 117.628 455.553 121.463C460.382 125.298 466.537 127.216 474.018 127.216Z"
        fill="#ededed" />
</svg>